<mxfile host="app.diagrams.net" modified="2023-10-20T07:02:45.634Z" agent="Mozilla/5.0 (Windows NT 10.0; Win64; x64) AppleWebKit/537.36 (KHTML, like Gecko) Chrome/118.0.0.0 Safari/537.36" etag="fZol3TFrcbE_Q0aO3_-w" version="22.0.5" type="google">
  <diagram id="prtHgNgQTEPvFCAcTncT" name="Page-1">
    <mxGraphModel grid="0" page="1" gridSize="10" guides="1" tooltips="1" connect="1" arrows="1" fold="1" pageScale="1" pageWidth="827" pageHeight="1169" math="0" shadow="0">
      <root>
        <mxCell id="0" />
        <mxCell id="1" parent="0" />
        <mxCell id="dNxyNK7c78bLwvsdeMH5-19" value="Mission Status" style="swimlane;html=1;childLayout=stackLayout;resizeParent=1;resizeParentMax=0;horizontal=0;startSize=20;horizontalStack=0;direction=east;rotation=90;rounded=0;" vertex="1" parent="1">
          <mxGeometry x="49" y="45" width="789" height="777" as="geometry" />
        </mxCell>
        <mxCell id="dNxyNK7c78bLwvsdeMH5-20" value="Rover Operator" style="swimlane;html=1;startSize=20;horizontal=0;direction=east;rotation=90;rounded=0;" vertex="1" parent="1">
          <mxGeometry x="-257" y="377.75" width="751.5" height="120" as="geometry" />
        </mxCell>
        <mxCell id="PK3k0DxYxC5TbHZgsctN-14" style="edgeStyle=orthogonalEdgeStyle;rounded=0;orthogonalLoop=1;jettySize=auto;html=1;entryX=0.5;entryY=0;entryDx=0;entryDy=0;" edge="1" parent="dNxyNK7c78bLwvsdeMH5-20" source="dNxyNK7c78bLwvsdeMH5-23" target="PK3k0DxYxC5TbHZgsctN-13">
          <mxGeometry relative="1" as="geometry" />
        </mxCell>
        <mxCell id="dNxyNK7c78bLwvsdeMH5-23" value="" style="ellipse;whiteSpace=wrap;html=1;direction=east;rotation=90;fillColor=#000000;rounded=0;" vertex="1" parent="dNxyNK7c78bLwvsdeMH5-20">
          <mxGeometry x="364.22" y="-289" width="22.5" height="24.88" as="geometry" />
        </mxCell>
        <mxCell id="dNxyNK7c78bLwvsdeMH5-32" value="" style="ellipse;whiteSpace=wrap;html=1;direction=east;rotation=90;rounded=0;" vertex="1" parent="dNxyNK7c78bLwvsdeMH5-20">
          <mxGeometry x="355.47" y="390.5" width="40" height="40" as="geometry" />
        </mxCell>
        <mxCell id="PK3k0DxYxC5TbHZgsctN-12" value="" style="ellipse;whiteSpace=wrap;html=1;direction=east;rotation=90;rounded=0;" vertex="1" parent="dNxyNK7c78bLwvsdeMH5-20">
          <mxGeometry x="360.22" y="395.75" width="30.5" height="29.5" as="geometry" />
        </mxCell>
        <mxCell id="PK3k0DxYxC5TbHZgsctN-13" value="Request Log In" style="rounded=1;whiteSpace=wrap;html=1;perimeterSpacing=0;glass=0;shadow=1;" vertex="1" parent="dNxyNK7c78bLwvsdeMH5-20">
          <mxGeometry x="321" y="-235.27999999999997" width="110" height="14.28" as="geometry" />
        </mxCell>
        <mxCell id="PK3k0DxYxC5TbHZgsctN-30" style="rounded=0;orthogonalLoop=1;jettySize=auto;html=1;endArrow=open;endFill=0;entryX=0.5;entryY=0;entryDx=0;entryDy=0;" edge="1" parent="dNxyNK7c78bLwvsdeMH5-20" source="PK3k0DxYxC5TbHZgsctN-24" target="PK3k0DxYxC5TbHZgsctN-34">
          <mxGeometry relative="1" as="geometry">
            <mxPoint x="375.33150000000023" y="-39.00000000000004" as="targetPoint" />
            <mxPoint x="376.6600000000001" y="-98.31149999999982" as="sourcePoint" />
          </mxGeometry>
        </mxCell>
        <mxCell id="PK3k0DxYxC5TbHZgsctN-24" value="Give Access" style="rounded=1;whiteSpace=wrap;html=1;glass=0;shadow=1;" vertex="1" parent="dNxyNK7c78bLwvsdeMH5-20">
          <mxGeometry x="331.25000000000006" y="-59.5" width="88.5" height="15.5" as="geometry" />
        </mxCell>
        <mxCell id="PK3k0DxYxC5TbHZgsctN-34" value="Request MissionStatus" style="rounded=1;whiteSpace=wrap;html=1;glass=0;shadow=1;" vertex="1" parent="dNxyNK7c78bLwvsdeMH5-20">
          <mxGeometry x="331.75" y="0.5" width="88.5" height="28" as="geometry" />
        </mxCell>
        <mxCell id="PK3k0DxYxC5TbHZgsctN-79" style="hachureGap=4;orthogonalLoop=1;jettySize=auto;html=1;entryX=0;entryY=0.5;entryDx=0;entryDy=0;fontFamily=Architects Daughter;fontSource=https%3A%2F%2Ffonts.googleapis.com%2Fcss%3Ffamily%3DArchitects%2BDaughter;fontSize=16;" edge="1" parent="dNxyNK7c78bLwvsdeMH5-20" source="PK3k0DxYxC5TbHZgsctN-73" target="dNxyNK7c78bLwvsdeMH5-32">
          <mxGeometry relative="1" as="geometry" />
        </mxCell>
        <mxCell id="PK3k0DxYxC5TbHZgsctN-73" value="Take Mission Update" style="rounded=1;whiteSpace=wrap;html=1;shadow=1;" vertex="1" parent="dNxyNK7c78bLwvsdeMH5-20">
          <mxGeometry x="325.88" y="314" width="100.25" height="32" as="geometry" />
        </mxCell>
        <mxCell id="dNxyNK7c78bLwvsdeMH5-21" value="System&lt;br&gt;" style="swimlane;html=1;startSize=20;horizontal=0;direction=east;rotation=90;rounded=0;" vertex="1" parent="1">
          <mxGeometry x="-137.25" y="377.75" width="751.5" height="120" as="geometry" />
        </mxCell>
        <mxCell id="PK3k0DxYxC5TbHZgsctN-16" value="Process Log in" style="rounded=1;whiteSpace=wrap;html=1;glass=0;shadow=1;" vertex="1" parent="dNxyNK7c78bLwvsdeMH5-21">
          <mxGeometry x="330.75" y="-202" width="88.5" height="15.5" as="geometry" />
        </mxCell>
        <mxCell id="PK3k0DxYxC5TbHZgsctN-23" value="Confirm user&amp;nbsp;" style="rounded=1;whiteSpace=wrap;html=1;glass=0;shadow=1;" vertex="1" parent="dNxyNK7c78bLwvsdeMH5-21">
          <mxGeometry x="330" y="-102" width="88.5" height="15.5" as="geometry" />
        </mxCell>
        <mxCell id="PK3k0DxYxC5TbHZgsctN-21" value="Verify Log in" style="rounded=1;whiteSpace=wrap;html=1;glass=0;shadow=1;" vertex="1" parent="dNxyNK7c78bLwvsdeMH5-21">
          <mxGeometry x="330" y="-152" width="88.5" height="15.5" as="geometry" />
        </mxCell>
        <mxCell id="PK3k0DxYxC5TbHZgsctN-22" style="rounded=0;orthogonalLoop=1;jettySize=auto;html=1;entryX=0.5;entryY=0;entryDx=0;entryDy=0;exitX=0.5;exitY=1;exitDx=0;exitDy=0;endArrow=open;endFill=0;" edge="1" parent="dNxyNK7c78bLwvsdeMH5-21" source="PK3k0DxYxC5TbHZgsctN-16" target="PK3k0DxYxC5TbHZgsctN-21">
          <mxGeometry relative="1" as="geometry" />
        </mxCell>
        <mxCell id="PK3k0DxYxC5TbHZgsctN-26" style="rounded=0;orthogonalLoop=1;jettySize=auto;html=1;exitX=0.5;exitY=1;exitDx=0;exitDy=0;endArrow=open;endFill=0;entryX=0.5;entryY=0;entryDx=0;entryDy=0;" edge="1" parent="dNxyNK7c78bLwvsdeMH5-21" source="PK3k0DxYxC5TbHZgsctN-21" target="PK3k0DxYxC5TbHZgsctN-23">
          <mxGeometry relative="1" as="geometry">
            <mxPoint x="421" y="-169" as="targetPoint" />
          </mxGeometry>
        </mxCell>
        <mxCell id="PK3k0DxYxC5TbHZgsctN-2" value="Mission Status(Object)" style="swimlane;html=1;startSize=20;horizontal=0;direction=east;rotation=90;rounded=0;" vertex="1" parent="1">
          <mxGeometry x="8.25" y="353" width="751" height="170" as="geometry" />
        </mxCell>
        <mxCell id="PK3k0DxYxC5TbHZgsctN-3" value="" style="edgeStyle=orthogonalEdgeStyle;rounded=0;orthogonalLoop=1;jettySize=auto;html=1;endArrow=classic;endFill=1;" edge="1" parent="PK3k0DxYxC5TbHZgsctN-2">
          <mxGeometry relative="1" as="geometry">
            <mxPoint x="411.9999999999998" y="29" as="sourcePoint" />
          </mxGeometry>
        </mxCell>
        <mxCell id="PK3k0DxYxC5TbHZgsctN-38" style="rounded=0;orthogonalLoop=1;jettySize=auto;html=1;exitX=1;exitY=0.75;exitDx=0;exitDy=0;endArrow=open;endFill=0;" edge="1" parent="PK3k0DxYxC5TbHZgsctN-2" source="PK3k0DxYxC5TbHZgsctN-32">
          <mxGeometry relative="1" as="geometry">
            <mxPoint x="508.25" y="64.75" as="targetPoint" />
          </mxGeometry>
        </mxCell>
        <mxCell id="PK3k0DxYxC5TbHZgsctN-32" value="Process Request" style="rounded=1;whiteSpace=wrap;html=1;shadow=1;" vertex="1" parent="PK3k0DxYxC5TbHZgsctN-2">
          <mxGeometry x="350.88" y="39.5" width="100.25" height="15.5" as="geometry" />
        </mxCell>
        <mxCell id="PK3k0DxYxC5TbHZgsctN-71" style="hachureGap=4;orthogonalLoop=1;jettySize=auto;html=1;fontFamily=Architects Daughter;fontSource=https%3A%2F%2Ffonts.googleapis.com%2Fcss%3Ffamily%3DArchitects%2BDaughter;fontSize=16;endArrow=none;endFill=0;startArrow=open;startFill=0;" edge="1" parent="PK3k0DxYxC5TbHZgsctN-2" source="PK3k0DxYxC5TbHZgsctN-70">
          <mxGeometry relative="1" as="geometry">
            <mxPoint x="507.93" y="295.07" as="targetPoint" />
          </mxGeometry>
        </mxCell>
        <mxCell id="PK3k0DxYxC5TbHZgsctN-70" value="Process Data" style="rounded=1;whiteSpace=wrap;html=1;shadow=1;" vertex="1" parent="PK3k0DxYxC5TbHZgsctN-2">
          <mxGeometry x="350.87999999999994" y="335.07" width="100.25" height="15.5" as="geometry" />
        </mxCell>
        <mxCell id="PK3k0DxYxC5TbHZgsctN-6" value="Hardware Status" style="swimlane;html=1;startSize=20;horizontal=0;direction=east;rotation=90;rounded=0;" vertex="1" parent="1">
          <mxGeometry x="153" y="377.75" width="751" height="120" as="geometry" />
        </mxCell>
        <mxCell id="PK3k0DxYxC5TbHZgsctN-7" value="" style="edgeStyle=orthogonalEdgeStyle;rounded=0;orthogonalLoop=1;jettySize=auto;html=1;endArrow=classic;endFill=1;" edge="1" parent="PK3k0DxYxC5TbHZgsctN-6">
          <mxGeometry relative="1" as="geometry">
            <mxPoint x="372" y="19" as="sourcePoint" />
          </mxGeometry>
        </mxCell>
        <mxCell id="PK3k0DxYxC5TbHZgsctN-40" style="rounded=0;orthogonalLoop=1;jettySize=auto;html=1;endArrow=none;endFill=0;startArrow=open;startFill=0;exitX=0.533;exitY=-0.008;exitDx=0;exitDy=0;exitPerimeter=0;" edge="1" parent="PK3k0DxYxC5TbHZgsctN-6" source="PK3k0DxYxC5TbHZgsctN-39">
          <mxGeometry relative="1" as="geometry">
            <mxPoint x="382" y="41" as="targetPoint" />
          </mxGeometry>
        </mxCell>
        <mxCell id="PK3k0DxYxC5TbHZgsctN-47" style="rounded=0;orthogonalLoop=1;jettySize=auto;html=1;exitX=0.5;exitY=1;exitDx=0;exitDy=0;" edge="1" parent="PK3k0DxYxC5TbHZgsctN-6" source="PK3k0DxYxC5TbHZgsctN-39">
          <mxGeometry relative="1" as="geometry">
            <mxPoint x="378" y="151" as="targetPoint" />
          </mxGeometry>
        </mxCell>
        <mxCell id="PK3k0DxYxC5TbHZgsctN-39" value="Run System Diagnosnis" style="rounded=1;whiteSpace=wrap;html=1;shadow=1;" vertex="1" parent="PK3k0DxYxC5TbHZgsctN-6">
          <mxGeometry x="325.87" y="71" width="105.13" height="39" as="geometry" />
        </mxCell>
        <mxCell id="PK3k0DxYxC5TbHZgsctN-52" value="Prepare Report" style="rounded=1;whiteSpace=wrap;html=1;glass=0;shadow=1;" vertex="1" parent="PK3k0DxYxC5TbHZgsctN-6">
          <mxGeometry x="325.87" y="151" width="105.13" height="25" as="geometry" />
        </mxCell>
        <mxCell id="PK3k0DxYxC5TbHZgsctN-43" value="" style="endArrow=none;html=1;rounded=0;" edge="1" parent="PK3k0DxYxC5TbHZgsctN-6">
          <mxGeometry width="50" height="50" relative="1" as="geometry">
            <mxPoint x="342" y="271" as="sourcePoint" />
            <mxPoint x="592" y="271" as="targetPoint" />
            <Array as="points" />
          </mxGeometry>
        </mxCell>
        <mxCell id="PK3k0DxYxC5TbHZgsctN-69" style="hachureGap=4;orthogonalLoop=1;jettySize=auto;html=1;fontFamily=Architects Daughter;fontSource=https%3A%2F%2Ffonts.googleapis.com%2Fcss%3Ffamily%3DArchitects%2BDaughter;fontSize=16;endArrow=open;endFill=0;exitX=0.5;exitY=1;exitDx=0;exitDy=0;" edge="1" parent="PK3k0DxYxC5TbHZgsctN-6" source="PK3k0DxYxC5TbHZgsctN-52">
          <mxGeometry relative="1" as="geometry">
            <mxPoint x="378" y="271" as="targetPoint" />
            <mxPoint x="378.5799999999999" y="246" as="sourcePoint" />
          </mxGeometry>
        </mxCell>
        <mxCell id="PK3k0DxYxC5TbHZgsctN-61" value="" style="endArrow=none;html=1;rounded=0;" edge="1" parent="PK3k0DxYxC5TbHZgsctN-6">
          <mxGeometry width="50" height="50" relative="1" as="geometry">
            <mxPoint x="472" y="151" as="sourcePoint" />
            <mxPoint x="642" y="151" as="targetPoint" />
            <Array as="points" />
          </mxGeometry>
        </mxCell>
        <mxCell id="PK3k0DxYxC5TbHZgsctN-15" style="rounded=0;orthogonalLoop=1;jettySize=auto;html=1;entryX=0;entryY=0;entryDx=0;entryDy=0;exitX=1;exitY=1;exitDx=0;exitDy=0;endArrow=open;endFill=0;" edge="1" parent="1" source="PK3k0DxYxC5TbHZgsctN-13" target="PK3k0DxYxC5TbHZgsctN-16">
          <mxGeometry relative="1" as="geometry">
            <mxPoint x="206.25" y="193.5" as="targetPoint" />
          </mxGeometry>
        </mxCell>
        <mxCell id="PK3k0DxYxC5TbHZgsctN-17" value="System Sensors" style="swimlane;html=1;startSize=20;horizontal=0;direction=east;rotation=90;rounded=0;" vertex="1" parent="1">
          <mxGeometry x="333" y="317.75" width="751" height="240" as="geometry">
            <mxRectangle x="874" y="-66" width="40" height="120" as="alternateBounds" />
          </mxGeometry>
        </mxCell>
        <mxCell id="PK3k0DxYxC5TbHZgsctN-18" value="" style="edgeStyle=orthogonalEdgeStyle;rounded=0;orthogonalLoop=1;jettySize=auto;html=1;endArrow=classic;endFill=1;" edge="1" parent="PK3k0DxYxC5TbHZgsctN-17">
          <mxGeometry relative="1" as="geometry">
            <mxPoint x="430" y="76" as="sourcePoint" />
          </mxGeometry>
        </mxCell>
        <mxCell id="PK3k0DxYxC5TbHZgsctN-57" style="hachureGap=4;orthogonalLoop=1;jettySize=auto;html=1;fontFamily=Architects Daughter;fontSource=https%3A%2F%2Ffonts.googleapis.com%2Fcss%3Ffamily%3DArchitects%2BDaughter;fontSize=16;endArrow=none;endFill=0;startArrow=open;startFill=0;" edge="1" parent="PK3k0DxYxC5TbHZgsctN-17" source="PK3k0DxYxC5TbHZgsctN-45">
          <mxGeometry relative="1" as="geometry">
            <mxPoint x="323.43499999999995" y="101" as="targetPoint" />
          </mxGeometry>
        </mxCell>
        <mxCell id="PK3k0DxYxC5TbHZgsctN-65" style="hachureGap=4;orthogonalLoop=1;jettySize=auto;html=1;fontFamily=Architects Daughter;fontSource=https%3A%2F%2Ffonts.googleapis.com%2Fcss%3Ffamily%3DArchitects%2BDaughter;fontSize=16;endArrow=none;endFill=0;startArrow=open;startFill=0;" edge="1" parent="PK3k0DxYxC5TbHZgsctN-17" source="PK3k0DxYxC5TbHZgsctN-45">
          <mxGeometry relative="1" as="geometry">
            <mxPoint x="323.43499999999995" y="211" as="targetPoint" />
          </mxGeometry>
        </mxCell>
        <mxCell id="PK3k0DxYxC5TbHZgsctN-45" value="Run Weather&amp;nbsp;&lt;br&gt;Module&amp;nbsp;" style="rounded=1;whiteSpace=wrap;html=1;shadow=1;" vertex="1" parent="PK3k0DxYxC5TbHZgsctN-17">
          <mxGeometry x="270.87" y="131" width="105.13" height="35" as="geometry" />
        </mxCell>
        <mxCell id="PK3k0DxYxC5TbHZgsctN-58" style="hachureGap=4;orthogonalLoop=1;jettySize=auto;html=1;fontFamily=Architects Daughter;fontSource=https%3A%2F%2Ffonts.googleapis.com%2Fcss%3Ffamily%3DArchitects%2BDaughter;fontSize=16;endArrow=none;endFill=0;startArrow=open;startFill=0;" edge="1" parent="PK3k0DxYxC5TbHZgsctN-17" source="PK3k0DxYxC5TbHZgsctN-55">
          <mxGeometry relative="1" as="geometry">
            <mxPoint x="438.56500000000005" y="101" as="targetPoint" />
          </mxGeometry>
        </mxCell>
        <mxCell id="PK3k0DxYxC5TbHZgsctN-66" style="hachureGap=4;orthogonalLoop=1;jettySize=auto;html=1;fontFamily=Architects Daughter;fontSource=https%3A%2F%2Ffonts.googleapis.com%2Fcss%3Ffamily%3DArchitects%2BDaughter;fontSize=16;endArrow=none;endFill=0;startArrow=open;startFill=0;" edge="1" parent="PK3k0DxYxC5TbHZgsctN-17" source="PK3k0DxYxC5TbHZgsctN-55">
          <mxGeometry relative="1" as="geometry">
            <mxPoint x="438.56500000000005" y="211" as="targetPoint" />
          </mxGeometry>
        </mxCell>
        <mxCell id="PK3k0DxYxC5TbHZgsctN-55" value="Run Visibility&amp;nbsp;&lt;br&gt;Module&amp;nbsp;" style="rounded=1;whiteSpace=wrap;html=1;shadow=1;" vertex="1" parent="PK3k0DxYxC5TbHZgsctN-17">
          <mxGeometry x="386" y="131" width="105.13" height="35" as="geometry" />
        </mxCell>
        <mxCell id="PK3k0DxYxC5TbHZgsctN-63" style="hachureGap=4;orthogonalLoop=1;jettySize=auto;html=1;fontFamily=Architects Daughter;fontSource=https%3A%2F%2Ffonts.googleapis.com%2Fcss%3Ffamily%3DArchitects%2BDaughter;fontSize=16;endArrow=none;endFill=0;startArrow=open;startFill=0;" edge="1" parent="PK3k0DxYxC5TbHZgsctN-17" source="PK3k0DxYxC5TbHZgsctN-59">
          <mxGeometry relative="1" as="geometry">
            <mxPoint x="368.56500000000005" y="211" as="targetPoint" />
          </mxGeometry>
        </mxCell>
        <mxCell id="PK3k0DxYxC5TbHZgsctN-67" style="hachureGap=4;orthogonalLoop=1;jettySize=auto;html=1;fontFamily=Architects Daughter;fontSource=https%3A%2F%2Ffonts.googleapis.com%2Fcss%3Ffamily%3DArchitects%2BDaughter;fontSize=16;endArrow=open;endFill=0;" edge="1" parent="PK3k0DxYxC5TbHZgsctN-17" source="PK3k0DxYxC5TbHZgsctN-59">
          <mxGeometry relative="1" as="geometry">
            <mxPoint x="368.56500000000005" y="291" as="targetPoint" />
          </mxGeometry>
        </mxCell>
        <mxCell id="PK3k0DxYxC5TbHZgsctN-59" value="Prepare Report" style="rounded=1;whiteSpace=wrap;html=1;glass=0;shadow=1;" vertex="1" parent="PK3k0DxYxC5TbHZgsctN-17">
          <mxGeometry x="316" y="236" width="105.13" height="25" as="geometry" />
        </mxCell>
        <mxCell id="PK3k0DxYxC5TbHZgsctN-62" value="" style="endArrow=none;html=1;rounded=0;" edge="1" parent="PK3k0DxYxC5TbHZgsctN-17">
          <mxGeometry width="50" height="50" relative="1" as="geometry">
            <mxPoint x="288.55999999999995" y="291" as="sourcePoint" />
            <mxPoint x="448.55999999999995" y="291" as="targetPoint" />
            <Array as="points" />
          </mxGeometry>
        </mxCell>
        <mxCell id="PK3k0DxYxC5TbHZgsctN-68" style="hachureGap=4;orthogonalLoop=1;jettySize=auto;html=1;fontFamily=Architects Daughter;fontSource=https%3A%2F%2Ffonts.googleapis.com%2Fcss%3Ffamily%3DArchitects%2BDaughter;fontSize=16;endArrow=open;endFill=0;" edge="1" parent="PK3k0DxYxC5TbHZgsctN-17">
          <mxGeometry relative="1" as="geometry">
            <mxPoint x="355" y="331" as="targetPoint" />
            <mxPoint x="355.71000000000004" y="291" as="sourcePoint" />
          </mxGeometry>
        </mxCell>
        <mxCell id="PK3k0DxYxC5TbHZgsctN-77" value="" style="endArrow=none;html=1;rounded=0;" edge="1" parent="PK3k0DxYxC5TbHZgsctN-17">
          <mxGeometry width="50" height="50" relative="1" as="geometry">
            <mxPoint x="181" y="101" as="sourcePoint" />
            <mxPoint x="441" y="101" as="targetPoint" />
            <Array as="points" />
          </mxGeometry>
        </mxCell>
        <mxCell id="PK3k0DxYxC5TbHZgsctN-36" style="rounded=0;orthogonalLoop=1;jettySize=auto;html=1;entryX=0;entryY=0.75;entryDx=0;entryDy=0;endArrow=open;endFill=0;" edge="1" parent="1" source="PK3k0DxYxC5TbHZgsctN-34" target="PK3k0DxYxC5TbHZgsctN-32">
          <mxGeometry relative="1" as="geometry" />
        </mxCell>
        <mxCell id="PK3k0DxYxC5TbHZgsctN-31" style="rounded=0;orthogonalLoop=1;jettySize=auto;html=1;endArrow=open;endFill=0;exitX=0.462;exitY=1.014;exitDx=0;exitDy=0;exitPerimeter=0;entryX=0.5;entryY=0;entryDx=0;entryDy=0;" edge="1" parent="1" source="PK3k0DxYxC5TbHZgsctN-23" target="PK3k0DxYxC5TbHZgsctN-24">
          <mxGeometry relative="1" as="geometry">
            <mxPoint x="234.75" y="298" as="targetPoint" />
          </mxGeometry>
        </mxCell>
        <mxCell id="PK3k0DxYxC5TbHZgsctN-78" style="hachureGap=4;orthogonalLoop=1;jettySize=auto;html=1;entryX=1;entryY=0;entryDx=0;entryDy=0;fontFamily=Architects Daughter;fontSource=https%3A%2F%2Ffonts.googleapis.com%2Fcss%3Ffamily%3DArchitects%2BDaughter;fontSize=16;" edge="1" parent="1" source="PK3k0DxYxC5TbHZgsctN-70" target="PK3k0DxYxC5TbHZgsctN-73">
          <mxGeometry relative="1" as="geometry" />
        </mxCell>
      </root>
    </mxGraphModel>
  </diagram>
</mxfile>
